<svg width="149" height="19" viewBox="0 0 149 19" fill="none" xmlns="http://www.w3.org/2000/svg">
<path d="M7.30822 1.728H4.23622C3.39622 1.728 2.79622 1.728 2.43622 1.728C2.05222 1.728 1.83622 1.704 1.76422 1.704C0.804221 1.728 0.348221 2.208 0.348221 3.168C0.348221 4.176 0.780221 4.68 1.69222 4.68C3.58822 4.68 4.83622 4.68 5.46022 4.656C5.46022 5.088 5.46022 5.64 5.46022 6.312C5.46022 6.984 5.48422 7.512 5.48422 7.896L5.43622 16.536C5.41222 17.592 5.94022 18.096 6.99622 18.096C7.57222 18.096 8.00422 17.976 8.34022 17.688C8.65222 17.424 8.79622 17.016 8.79622 16.44C8.72422 10.776 8.70022 7.152 8.72422 5.592V4.632L12.3242 4.656C13.2602 4.656 13.7402 4.128 13.7402 3.048C13.7402 2.136 13.2602 1.656 12.3482 1.656C11.8442 1.656 10.9082 1.68 9.54022 1.704C8.14822 1.728 7.40422 1.728 7.30822 1.728ZM17.9402 13.344C20.5322 13.344 22.3322 13.32 23.3402 13.272C24.1082 13.272 24.6122 13.104 24.8522 12.792C25.0922 12.504 25.2362 11.976 25.2362 11.256C25.2362 10.104 24.7562 9.072 23.7962 8.16C22.8362 7.248 21.6602 6.792 20.2442 6.792C18.6602 6.792 17.3162 7.368 16.2362 8.52C15.1322 9.672 14.6042 11.112 14.6042 12.816C14.6042 14.304 15.1562 15.576 16.2362 16.632C17.2922 17.688 18.5882 18.192 20.1242 18.192C21.7562 18.192 23.0282 17.904 23.9882 17.304C24.5162 16.992 24.8042 16.56 24.8042 16.032C24.8042 15.624 24.6602 15.264 24.3962 14.952C24.1322 14.64 23.8202 14.472 23.4602 14.472C23.1482 14.472 22.7882 14.592 22.3802 14.808C21.7562 15.192 21.0842 15.36 20.3642 15.36C19.7402 15.36 19.2122 15.168 18.7322 14.784C18.2522 14.4 17.9882 13.92 17.9402 13.344ZM20.2442 9.384C20.7722 9.384 21.2042 9.552 21.5882 9.864C21.9482 10.2 22.1402 10.608 22.1402 11.112C22.1402 11.208 22.0442 11.256 21.8522 11.256C20.5562 11.328 19.2602 11.352 17.9402 11.352C17.9882 10.824 18.2282 10.368 18.6602 9.984C19.0922 9.6 19.6202 9.384 20.2442 9.384ZM29.3329 2.184C29.2369 8.976 29.2369 13.536 29.3089 15.888C29.3089 17.496 29.9329 18.24 31.1569 18.12C31.7329 18.072 32.1169 17.928 32.3569 17.688C32.5729 17.472 32.6929 17.112 32.7169 16.608C32.7169 16.32 32.6929 15.864 32.6689 15.216C32.6449 14.592 32.6449 14.088 32.6449 13.728C32.6449 9.504 32.6689 5.688 32.7409 2.304C32.7409 1.776 32.5969 1.368 32.3089 1.08C32.0209 0.816 31.5889 0.671999 31.0369 0.671999C30.5329 0.671999 30.1249 0.816 29.8129 1.056C29.4769 1.32 29.3329 1.704 29.3329 2.184ZM40.0268 13.344C42.6188 13.344 44.4188 13.32 45.4268 13.272C46.1948 13.272 46.6988 13.104 46.9388 12.792C47.1788 12.504 47.3228 11.976 47.3228 11.256C47.3228 10.104 46.8428 9.072 45.8828 8.16C44.9228 7.248 43.7468 6.792 42.3308 6.792C40.7468 6.792 39.4028 7.368 38.3228 8.52C37.2188 9.672 36.6908 11.112 36.6908 12.816C36.6908 14.304 37.2428 15.576 38.3228 16.632C39.3788 17.688 40.6748 18.192 42.2108 18.192C43.8428 18.192 45.1148 17.904 46.0748 17.304C46.6028 16.992 46.8908 16.56 46.8908 16.032C46.8908 15.624 46.7468 15.264 46.4828 14.952C46.2188 14.64 45.9068 14.472 45.5468 14.472C45.2348 14.472 44.8748 14.592 44.4668 14.808C43.8428 15.192 43.1708 15.36 42.4508 15.36C41.8268 15.36 41.2988 15.168 40.8188 14.784C40.3388 14.4 40.0748 13.92 40.0268 13.344ZM42.3308 9.384C42.8588 9.384 43.2908 9.552 43.6748 9.864C44.0348 10.2 44.2268 10.608 44.2268 11.112C44.2268 11.208 44.1308 11.256 43.9388 11.256C42.6428 11.328 41.3468 11.352 40.0268 11.352C40.0748 10.824 40.3148 10.368 40.7468 9.984C41.1788 9.6 41.7068 9.384 42.3308 9.384ZM59.1235 1.488C56.8675 1.488 54.8995 2.304 53.2675 3.888C51.6355 5.472 50.8195 7.464 50.8195 9.84C50.8195 12.288 51.5635 14.28 53.0515 15.84C54.5395 17.424 56.3875 18.192 58.5955 18.192C60.9475 18.192 62.7955 17.52 64.1395 16.152C65.4595 14.808 66.1315 13.056 66.1315 10.92C66.1315 10.2 65.9875 9.672 65.7475 9.288C65.4835 8.928 65.0035 8.736 64.3315 8.736H60.8995C59.9395 8.76 59.4835 9.216 59.4835 10.128C59.4835 10.56 59.5795 10.896 59.8195 11.136C60.0595 11.4 60.3715 11.544 60.8035 11.544H62.8195C62.7955 12.504 62.4355 13.344 61.7635 14.064C61.0915 14.784 60.1555 15.144 59.0035 15.144C57.5395 15.144 56.3635 14.664 55.4995 13.68C54.6115 12.696 54.1795 11.352 54.1795 9.648C54.1795 8.208 54.6595 6.96 55.6675 5.928C56.6515 4.92 57.7795 4.392 59.0755 4.392C60.0835 4.392 61.0195 4.632 61.8595 5.088C62.3875 5.424 62.8675 5.568 63.3475 5.568C63.7315 5.568 64.0435 5.424 64.2835 5.088C64.5235 4.752 64.6675 4.392 64.6675 4.008C64.6675 3.48 64.3075 3.024 63.6355 2.616C62.3875 1.872 60.8755 1.488 59.1235 1.488ZM70.2312 8.376C70.2312 8.64 70.2312 9.024 70.2312 9.552C70.2312 10.08 70.2552 10.488 70.2552 10.728C70.2552 11.28 70.2312 12.216 70.2072 13.56C70.1832 14.904 70.1832 15.864 70.1832 16.488C70.1832 17.112 70.3032 17.52 70.5912 17.76C70.8552 18 71.2632 18.12 71.7912 18.12C72.8712 18.12 73.4232 17.688 73.4472 16.776C73.4712 16.608 73.4712 16.008 73.4472 15C73.4232 13.992 73.4232 13.44 73.4232 13.296C73.4232 12.168 73.6392 11.328 74.1192 10.752C74.5752 10.176 75.1992 9.888 75.9672 9.888H76.3272C76.7352 9.888 77.0472 9.744 77.2872 9.432C77.5032 9.12 77.6232 8.736 77.6232 8.304C77.6232 7.296 77.1192 6.792 76.1592 6.792C75.5592 6.792 74.9832 6.984 74.4312 7.344C73.8792 7.704 73.4712 8.184 73.2072 8.784L73.0632 7.824C72.9192 7.2 72.5112 6.888 71.8392 6.888C70.7592 6.888 70.2312 7.392 70.2312 8.376ZM91.5951 10.344L91.6191 8.472C91.6191 7.44 91.0911 6.912 90.0831 6.912C89.4831 6.912 89.0751 7.152 88.8351 7.584C88.7391 7.776 88.6671 8.016 88.6191 8.328C87.9471 7.344 86.9391 6.84 85.6431 6.84C84.0111 6.84 82.6671 7.392 81.6111 8.496C80.5551 9.6 80.0271 11.016 80.0271 12.768C80.0271 14.328 80.5071 15.624 81.4911 16.632C82.4511 17.664 83.7471 18.168 85.3311 18.168C86.7711 18.168 87.8511 17.592 88.5471 16.44C88.6671 17.04 88.8351 17.472 89.0511 17.712C89.2671 17.976 89.5791 18.096 89.9871 18.096C91.0911 18.096 91.6671 17.64 91.6671 16.728C91.5951 15.528 91.5711 14.592 91.5711 13.968L91.5951 10.344ZM83.3631 12.696C83.3631 11.784 83.5791 11.04 84.0591 10.488C84.5391 9.936 85.1391 9.648 85.9071 9.648C86.5791 9.648 87.1791 9.912 87.6831 10.416C88.1871 10.944 88.4511 11.64 88.4511 12.504C88.4511 13.368 88.1871 14.064 87.6831 14.592C87.1551 15.12 86.5311 15.384 85.7631 15.384C85.0911 15.384 84.5151 15.144 84.0591 14.616C83.5791 14.112 83.3631 13.464 83.3631 12.696ZM96.2547 12.048L96.2067 15.264C96.1827 15.888 96.1827 16.368 96.1827 16.68C96.1827 17.184 96.3267 17.544 96.6387 17.76C96.9507 18 97.3347 18.096 97.7907 18.096C98.2707 18.096 98.6547 18 98.9907 17.784C99.3267 17.568 99.4947 17.232 99.4947 16.8V12.552C99.4467 10.536 100.143 9.528 101.559 9.528C102.087 9.528 102.495 9.744 102.783 10.176C103.071 10.608 103.215 11.136 103.239 11.736C103.239 12.168 103.215 13.848 103.191 16.776C103.191 17.64 103.695 18.072 104.751 18.096C105.255 18.12 105.663 18 105.951 17.76C106.239 17.52 106.407 17.16 106.431 16.68C106.431 16.152 106.455 15.36 106.455 14.304C106.455 13.176 106.455 12.288 106.479 11.64C106.479 11.016 106.671 10.536 107.055 10.152C107.415 9.768 107.871 9.576 108.447 9.576C109.503 9.576 110.031 10.344 110.031 11.88C110.031 12.6 110.007 13.488 109.983 14.592C109.959 15.696 109.959 16.416 109.959 16.8C109.959 17.208 110.103 17.52 110.391 17.76C110.679 18 111.087 18.096 111.591 18.096C112.647 18.096 113.175 17.688 113.223 16.872C113.271 15.816 113.295 14.832 113.295 13.968L113.271 11.4C113.271 9.984 112.911 8.856 112.215 8.016C111.519 7.176 110.463 6.768 109.047 6.768C108.375 6.792 107.727 6.984 107.103 7.344C106.479 7.704 105.975 8.16 105.639 8.688C105.351 8.112 104.943 7.656 104.391 7.296C103.839 6.96 103.191 6.768 102.423 6.768C101.799 6.768 101.199 6.936 100.623 7.248C100.047 7.584 99.6147 7.992 99.3747 8.496L99.3027 7.872C99.1587 7.152 98.6787 6.792 97.9107 6.792C96.7587 6.792 96.2067 7.296 96.2067 8.256C96.2067 8.376 96.2067 8.568 96.2067 8.856C96.2067 9.144 96.2307 9.552 96.2307 10.08C96.2307 10.608 96.2547 11.28 96.2547 12.048Z" fill="white"/>
<path d="M125.398 12.888H128.398V16.176C128.398 16.56 128.494 16.872 128.71 17.112C128.926 17.352 129.238 17.496 129.646 17.496C130.606 17.496 131.11 17.088 131.11 16.272C131.11 16.176 131.086 15.912 131.086 15.432C131.086 14.952 131.086 14.52 131.086 14.136V12.888H134.062C134.494 12.888 134.806 12.744 135.046 12.504C135.262 12.264 135.382 11.952 135.382 11.544C135.382 10.632 134.95 10.176 134.086 10.176C133.27 10.224 132.286 10.224 131.134 10.224C131.134 9.864 131.11 9.216 131.11 8.304C131.11 7.392 131.11 6.888 131.11 6.768C131.11 5.856 130.654 5.4 129.79 5.4C129.406 5.4 129.07 5.52 128.806 5.76C128.518 6 128.398 6.312 128.398 6.744V7.656V9.096V10.176C128.134 10.176 127.654 10.176 126.934 10.176C126.214 10.176 125.734 10.152 125.47 10.152C124.558 10.152 124.102 10.56 124.078 11.376C124.054 11.832 124.15 12.192 124.39 12.48C124.606 12.768 124.942 12.888 125.398 12.888ZM138.961 12.888H141.961V16.176C141.961 16.56 142.057 16.872 142.273 17.112C142.489 17.352 142.801 17.496 143.209 17.496C144.169 17.496 144.673 17.088 144.673 16.272C144.673 16.176 144.649 15.912 144.649 15.432C144.649 14.952 144.649 14.52 144.649 14.136V12.888H147.625C148.057 12.888 148.369 12.744 148.609 12.504C148.825 12.264 148.945 11.952 148.945 11.544C148.945 10.632 148.513 10.176 147.649 10.176C146.833 10.224 145.849 10.224 144.697 10.224C144.697 9.864 144.673 9.216 144.673 8.304C144.673 7.392 144.673 6.888 144.673 6.768C144.673 5.856 144.217 5.4 143.353 5.4C142.969 5.4 142.633 5.52 142.369 5.76C142.081 6 141.961 6.312 141.961 6.744V7.656V9.096V10.176C141.697 10.176 141.217 10.176 140.497 10.176C139.777 10.176 139.297 10.152 139.033 10.152C138.121 10.152 137.665 10.56 137.641 11.376C137.617 11.832 137.713 12.192 137.953 12.48C138.169 12.768 138.505 12.888 138.961 12.888Z" fill="#1285EF"/>
</svg>
